<?xml version="1.0" encoding="UTF-8"?><!DOCTYPE svg PUBLIC "-//W3C//DTD SVG 1.1//EN" "http://www.w3.org/Graphics/SVG/1.1/DTD/svg11.dtd"><svg xmlns="http://www.w3.org/2000/svg" xmlns:xlink="http://www.w3.org/1999/xlink"><symbol id="arrow-right"><path fill-rule="evenodd" stroke="#fff" opacity=".3" d="M18.341 6.781h0l.155.149-5.947 6.569-.311-.299 5.807-6.414-.005-.005H.5v-.438h17.116L12.244.805l.3-.309 5.672 5.847h.125v.128l.15.155-.15.155h0z"/></symbol><symbol id="behance"><path fill-rule="evenodd" opacity=".2" d="M17.03 2.197h6.377v1.629H17.03V2.197zm8.796 9.647h-8.303c.089 2.015 1.068 2.757 2.826 2.757 1.27 0 2.295-.406 2.495-1.123h2.532c-.889 2.73-2.532 3.516-5.137 3.516-3.629 0-5.877-2.506-5.877-6.084 0-3.469 2.383-6.11 5.877-6.11 3.917 0 5.809 3.487 5.587 7.044zm-8.303-2.365h5.143c-.29-1.61-.981-2.283-2.517-2.283-2.003 0-2.582 1.389-2.626 2.283zm-3.991 2.57c0 3.244-2.739 4.633-5.611 4.633H.219V.605h7.482c3.026 0 5.074 1.085 5.074 4.06 0 1.569-.779 2.663-2.161 3.336 1.939.559 2.918 2.057 2.918 4.048zm-6.845-8.74H3.415v3.736h3.539c1.224 0 2.137-.559 2.137-1.9 0-1.521-1.158-1.836-2.404-1.836zm.533 6.13H3.415v4.386h3.739c1.38 0 2.581-.447 2.581-2.103 0-1.633-1.022-2.283-2.515-2.283z"/></symbol><symbol id="clock"><path fill-rule="evenodd" d="M20 39.199C9.396 39.199.8 30.604.8 20 .8 9.396 9.396.799 20 .799S39.2 9.396 39.2 20c0 10.604-8.596 19.199-19.2 19.199zm0-36C10.736 3.199 3.2 10.736 3.2 20c0 9.263 7.536 16.837 16.8 16.837 9.264 0 16.8-7.574 16.8-16.837 0-9.264-7.536-16.801-16.8-16.801zm5.167 23.675l-5.94-5.94c-.018-.019-.025-.043-.042-.063A1.189 1.189 0 0118.8 20V8a1.2 1.2 0 112.4 0v11.512l5.664 5.665a1.2 1.2 0 11-1.697 1.697z"/></symbol><symbol id="cup"><path fill-rule="evenodd" d="M38.261 11.193c-1.439 1.778-3.651 2.694-6.568 2.738-1.613 4.801-5.671 8.351-10.552 8.87v8.822h3.883c.694 0 1.256.567 1.256 1.267s-.562 1.266-1.256 1.266H14.869a1.26 1.26 0 01-1.256-1.266c0-.7.562-1.267 1.256-1.267h3.76V22.8c-4.874-.53-8.923-4.08-10.532-8.877-2.82-.081-4.968-.992-6.375-2.73C-.724 8.169.119 3.731.156 3.547a1.258 1.258 0 011.23-1.011h5.958V1.271c0-.7.562-1.266 1.256-1.266h22.593a1.26 1.26 0 011.256 1.266v1.265h6.148c.596 0 1.111.423 1.23 1.011.037.184.88 4.622-1.566 7.646zM2.51 5.069c-.056 1.152.055 3.167 1.168 4.532.816 1.003 2.114 1.566 3.816 1.731-.09-.65-.15-1.31-.15-1.987V5.069H2.51zm27.426-2.531H9.857v6.807c0 6.06 4.504 10.991 10.041 10.991 5.535 0 10.038-4.931 10.038-10.991V2.538zm7.537 2.531h-5.024v4.276c0 .682-.061 1.347-.151 2.001 1.797-.138 3.162-.705 4.007-1.745 1.113-1.365 1.225-3.379 1.168-4.532zM11.115 35.462h17.662a1.26 1.26 0 011.256 1.266c0 .7-.562 1.267-1.256 1.267H11.115a1.261 1.261 0 01-1.256-1.267c0-.7.562-1.266 1.256-1.266z"/></symbol><symbol id="dribble" viewBox="0 0 92 92"><path d="M43.83 33.1a239.05 239.05 0 00-14.59-22.63A39.3 39.3 0 007.56 37.9a145.44 145.44 0 0036.27-4.8zm4.89 13.2l1.55-.47c-1-2.23-2.06-4.47-3.19-6.67a143.83 143.83 0 01-40.33 5.59V46a39.07 39.07 0 0010.08 26.26S27.52 53.15 48.72 46.3zM21.86 76.97c-.29-.23-.6-.44-.89-.67zM36.59 7.86h-.1.09zm35.36 8.66a39.22 39.22 0 00-35.21-8.7 199.07 199.07 0 0114.69 22.95c14.81-5.58 20.41-14.09 20.52-14.25zM46 92a46 46 0 1146-46 46 46 0 01-46 46zm6.68-39.57c-23.05 8-30.66 24.19-30.82 24.52a39.23 39.23 0 0039.52 5.22 164.06 164.06 0 00-8.4-29.83zm1.77-15.84c.92 1.88 1.8 3.78 2.61 5.7.29.68.58 1.36.85 2a91 91 0 0127.36 1.28 39.1 39.1 0 00-8.93-24.56c-.08.15-6.38 9.25-21.89 15.58zm5.85 13.93a169.34 169.34 0 017.65 28.06 39.33 39.33 0 0016.84-26.35 57.14 57.14 0 00-24.49-1.71z"/></symbol><symbol id="dribble2"><path fill-rule="evenodd" opacity=".2" d="M25.559 10.423a12.77 12.77 0 00-3.489-6.474 12.806 12.806 0 00-4.068-2.744 12.846 12.846 0 00-9.966 0 12.815 12.815 0 00-4.069 2.744 12.772 12.772 0 00-3.749 9.05 12.81 12.81 0 002.187 7.159c.458.678.983 1.314 1.562 1.894a12.937 12.937 0 001.894 1.561 12.745 12.745 0 007.158 2.188 12.773 12.773 0 009.051-3.749 12.932 12.932 0 001.562-1.894 12.74 12.74 0 002.187-7.159c0-.867-.087-1.735-.26-2.576zm-1.612 2.468c-.158-.035-3.858-.831-7.614-.358a32.905 32.905 0 00-.962-2.15c4.317-1.762 6.07-4.297 6.09-4.327a10.877 10.877 0 012.486 6.835zm-3.708-8.096c-.027.043-1.584 2.413-5.71 3.959a55.647 55.647 0 00-4.086-6.378c.826-.2 1.688-.308 2.576-.308 2.768 0 5.294 1.031 7.22 2.727zm-9.838-2.41l-.002.002-.033.007.035-.009zm-2.046.728a65.673 65.673 0 014.059 6.299c-5.249 1.394-9.804 1.339-10.093 1.334a10.945 10.945 0 016.034-7.633zm-6.268 9.886c0-.116.005-.231.009-.345.193.004 5.595.126 11.223-1.558.314.613.613 1.236.887 1.858a10.7 10.7 0 00-.431.131C7.876 14.991 4.884 20.3 4.884 20.3l.004.005a10.893 10.893 0 01-2.801-7.306zm10.932 10.933c-2.646 0-5.072-.941-6.964-2.505.144.116.245.191.245.191s2.096-4.571 8.579-6.829a1 1 0 01.072-.023c1.539 3.997 2.174 7.344 2.336 8.3a10.895 10.895 0 01-4.268.866zm6.108-1.865c-.111-.661-.693-3.869-2.128-7.809 3.53-.564 6.588.404 6.813.477a10.934 10.934 0 01-4.685 7.332z"/></symbol><symbol id="envelope"><path fill-rule="evenodd" fill="#04B493" d="M23 13.465c0 1.206-.606 2.546-1.797 2.546H2.516C1.325 16.011 0 14.671 0 13.465V1.829c0-.059.017-.109.023-.165a.719.719 0 01.152-.607c.027-.031.062-.046.093-.072C.713.341 1.647.011 2.516.011h18.687c.96 0 1.52.418 1.709 1.203a.718.718 0 01.065.452c.003.059.023.101.023.163v11.636zM2.516 14.556h18.687c.397 0 .359-.689.359-1.091V3.046l-9.591 7.764a.712.712 0 01-.942 0L1.437 3.046v10.419c0 .402.682 1.091 1.079 1.091zM20.844 1.465H2.516c-.199 0-.469-.009-.69.032L11.5 9.298l9.713-7.833h-.369z"/></symbol><symbol id="eye" viewBox="0 0 100 56"><path d="M50 0C17.2 0 0 24.17 0 28s17.2 28 50 28 50-24.16 50-28S82.81 0 50 0zm0 49.54c-12.27 0-22.22-9.64-22.22-21.54S37.78 6.47 50 6.47 72.22 16.11 72.22 28 62.28 49.53 50 49.53zM50 28c-2-2.23 3.32-10.77 0-10.77A10.78 10.78 0 1061.11 28c0-2.73-9.38 1.9-11.11 0z"/></symbol><symbol id="facebook" viewBox="0 0 50 90"><path d="M50 15.65H35.72c-1.69 0-3.57 2.22-3.57 5.19v10.32H50v14.69H32.15v44.14H15.29V45.85H0v-14.7h15.29v-8.66c0-12.41 8.61-22.5 20.43-22.5H50z"/></symbol><symbol id="feather" viewBox="0 0 70 100"><path d="M6.27 98.81c1.53-5 3.85-12.06 7-22.25 13.53-2.19 19.13 1.73 27.72-13.93-7 2.18-15.38-4-14.93-6.74s19.56 1.95 32.08-16.19c-15.78 3.55-20.82-4.26-18.79-5.44 4.7-2.73 18.64-1.13 26.07-8.52 3.82-3.79 5.62-13 4.06-16.34C67.61 5.4 56.2-.52 49.91.04S33.75 24.48 30.83 24.29 27.31 13.6 32.42 3.82c-5.39 2.43-15.25 10-18.35 16.46-5.76 12 .54 39.62-1.48 40.6S3.76 48.22 1.73 42.04c-2.77 9.48-2.84 19 5.27 31.6a88.3 88.3 0 00-5 22.65c-.14 3.88 3.6 4.71 4.27 2.52z"/></symbol><symbol id="forrst"><path fill-rule="evenodd" opacity=".2" d="M22.122 25.536a.575.575 0 01-.483.265H12.79V21l3.929-2.4a.792.792 0 00.785-.8c0-.442-.351-.8-.785-.8l-3.929 2.4v-2.8l2.357-1.2a.793.793 0 00.786-.8c0-.442-.352-.8-.786-.8L12.79 15v-1.2c0-.442-.352-.8-.786-.8h-1.571a.793.793 0 00-.786.8v5.067L6.504 17.8a.792.792 0 00-.785.8c0 .442.351.8.785.8l3.143 1.067v5.334H.798a.576.576 0 01-.482-.265.602.602 0 01-.046-.559L10.708.551a.575.575 0 01.528-.352c.23 0 .438.138.529.353l10.403 24.427a.601.601 0 01-.046.557z"/></symbol><symbol id="friends"><path fill-rule="evenodd" d="M35.995 32.055h-3.941c-.28-1.046-.499-1.827-1.223-2.372h4.794v-2.11a3.402 3.402 0 00-.549-.307 3.388 3.388 0 01-.219-.105l-7.587-4.137a2.379 2.379 0 01-1.23-1.885 2.378 2.378 0 01.899-2.064c2.049-1.61 2.738-5.159 2.738-7.017v-5.01c0-1.744-3.149-4.676-6.579-4.676-1.717 0-3.3.58-4.552 1.553-.931-.297-2.008-.298-2.986-.358C17.274 1.564 20.219 0 23.098 0c4.431 0 8.954 3.732 8.954 7.048v5.01c0 2.406-.866 6.698-3.645 8.882l7.588 4.138S38 25.902 38 27.082v2.969a2.006 2.006 0 01-2.005 2.004zM23.741 12.956v5.009c0 2.406-.755 6.699-3.534 8.883l7.477 4.137s2.005.825 2.005 2.004v3.007A2.006 2.006 0 0127.684 38H2.004A2.006 2.006 0 010 35.996v-3.007c0-1.112 2.004-2.004 2.004-2.004l7.67-4.156C6.866 24.58 5.94 20.154 5.94 17.965v-5.009c0-3.317 4.528-7.012 8.958-7.012 4.431 0 8.843 3.695 8.843 7.012zm-2.375 0c0-1.745-3.037-4.639-6.468-4.639-3.367 0-6.583 2.935-6.583 4.639v5.009c0 1.885.853 5.418 2.844 7.013.621.497.951 1.272.881 2.063a2.375 2.375 0 01-1.234 1.874l-7.67 4.155a2.11 2.11 0 01-.165.082c-.188.086-.426.23-.596.354v2.121h24.939V33.48a3.562 3.562 0 00-.549-.307 2.755 2.755 0 01-.219-.105l-7.476-4.137a2.378 2.378 0 01-1.23-1.885 2.378 2.378 0 01.899-2.064c2.049-1.61 2.627-5.159 2.627-7.017v-5.009z"/></symbol><symbol id="google" viewBox="0 0 89.61 88"><path d="M4.75 21.95c0 7.47 2.49 12.86 7.41 16a21.16 21.16 0 0011.13 3c.59 0 1.06 0 1.39-.05a14.34 14.34 0 003 10h-.17C21.07 50.9.05 52.25.05 69.53c0 17.59 19.3 18.48 23.18 18.48h1.27a35.75 35.75 0 0014.88-3.21c7.74-3.76 11.67-10.29 11.67-19.42 0-8.83-6-14.08-10.35-17.92-2.67-2.34-5-4.36-5-6.32s1.68-3.51 3.81-5.41c3.44-3.08 6.69-7.47 6.69-15.76 0-7.28-.95-12.17-6.77-15.28a21 21 0 013.82-.68c3.15-.43 7.77-.92 7.77-3.5v-.5h-23c-.25 0-23.27.85-23.27 21.94zm37.12 45.06c.44 7-5.58 12.22-14.61 12.88s-16.73-3.46-17.17-10.48a11.63 11.63 0 014.18-9.32 19.07 19.07 0 0111.39-4.64c.52 0 1-.05 1.55-.05 8.49 0 14.24 4.99 14.66 11.61zm-6-49.87c2.26 7.93-1.15 16.22-6.57 17.75a7 7 0 01-1.93.27c-5 0-9.9-5-11.72-12a17.3 17.3 0 01.23-10.57c1.15-3.22 3.22-5.39 5.82-6.12a6.9 6.9 0 011.92-.27c5.99.04 9.89 2.53 12.24 10.99zm38.75 17.27v-15h-9.5v15h-15v9.5h15v15h9.5v-15h15v-9.5z"/></symbol><symbol id="google2"><path fill-rule="evenodd" opacity=".2" d="M21.819 6.322v3.905h-1.6V6.322h-4V4.726h4V.822h1.6v3.904h4v1.596h-4zM10.755 2.369c1.42.786 2.252 2.062 2.252 3.73 0 1.402-.866 2.506-1.982 3.363-1.089.836-1.296 1.187-1.296 1.897 0 .606 1.167 1.639 1.777 2.063 1.784 1.239 2.311 2.389 2.311 4.309 0 2.395-2.311 5.071-6.585 5.071-3.75 0-7.013-1.794-7.013-4.189 0-2.432 2.986-4.779 6.735-4.779.408 0 .783-.017 1.17-.017-.513-.49-.919-1.1-.919-1.841 0-.439.143-.881.343-1.257-.204.015-.412-.018-.626-.018-3.08 0-5.143-2.226-5.143-4.893 0-2.609 2.849-5.01 5.876-5.01h6.752l-1.511 1.571h-2.141zM7.668 14.454c-2.591-.027-4.913 1.553-4.913 3.449 0 1.935 1.872 3.35 4.463 3.35 3.643 0 4.913-1.316 4.913-3.251 0-.233-.03-.462-.083-.684-.285-1.095-1.293-1.638-2.7-2.598a5.746 5.746 0 00-1.68-.266zm2.912-8.325c-.301-2.243-2.029-4.044-3.769-4.094C5.072 1.984 3.905 3.7 4.206 5.944c.3 2.244 1.953 4.104 3.693 4.155 1.738.051 2.981-1.726 2.681-3.97z"/></symbol><symbol id="heart" viewBox="0 0 86 70"><path d="M78.94 5.76a22.76 22.76 0 00-30.27 0L43 10.96l-5.68-5.2a22.76 22.76 0 00-30.27 0 20.84 20.84 0 000 31.25l36 33 35.94-33a20.83 20.83 0 00-.05-31.25zm-5.35 26.12L42.97 60.45 12.35 31.88a13.7 13.7 0 01-4.29-10.5c0-3.93.69-7.16 3.78-10a15.14 15.14 0 0110.32-3.89c3.92 0 7.58 2.38 10.31 4.89l10.5 9.13 10.49-9.13c2.73-2.51 6.4-4.89 10.32-4.89a15.16 15.16 0 0110.32 3.89c3.08 2.83 3.77 6.06 3.77 10a13.69 13.69 0 01-4.28 10.5z"/></symbol><symbol id="megaphone" viewBox="0 0 86 90"><path d="M79.12 30.15C71.2 11.73 58.46-2.3 52.01.32 41.06 4.77 58.53 26.14 4.78 47.99.13 49.87-1.04 57.43.9 61.94s8.29 9 12.94 7.13c.8-.33 3.75-1.28 3.75-1.28 3.32 4.45 6.79 1.81 8 4.64 1.48 3.4 4.69 10.79 5.79 13.3s3.57 4.84 5.37 4.15L47 85.98a3.38 3.38 0 002.18-4.62c-.77-1.77-3.93-2.29-4.83-4.36s-3.85-8.69-4.69-10.78c-1.16-2.84 1.29-5.15 4.85-5.53 24.46-2.55 29 12.57 37.37 9.18 6.43-2.59 5.15-21.3-2.76-39.72zm-2.76 29.88c-1.43.59-11.06-7-17.21-21.33s-5.38-27.41-4-28 10.82 8.58 17 22.9 5.64 25.85 4.21 26.43z"/></symbol><symbol id="pencil" viewBox="0 0 78 78"><path d="M71.81 6.19C64.59-1.02 59.18.06 59.18.06L33.92 25.32 5.05 54.19.05 78l23.81-5.05 28.87-28.87 25.26-25.25s1.04-5.42-6.18-12.64zM22.4 70.09l-8.12 1.75a19.91 19.91 0 00-8.11-8.12l1.75-8.11 2.34-2.35s4.42.09 9.41 5.08 5.07 9.4 5.07 9.4z"/></symbol><symbol id="rocket"><path fill-rule="evenodd" d="M31.656 12.023c-.706 1.901-1.425 3.187-3.398 4.941-1.402 1.246-4.782 2.821-7.046 4.087-.831.465-1.714.942-2.212 1.251v5.16a.999.999 0 01-.35.759l-3.705 3.686a.997.997 0 01-.96.192 1.003 1.003 0 01-.664-.721l-1.217-5.147-2.26-2.506c-1.084-1.203-1.761-1.954-2.168-2.456l-5.967-1.364a1 1 0 01-.525-1.639l3.666-3.973a1 1 0 01.748-.337h5.563c.346-.622.754-1.436 1.181-2.288 1.105-2.205 2.358-4.861 3.617-6.331 1.512-1.763 3.131-2.927 5.098-3.661C26.44-.335 32.037.074 32.037.074a1 1 0 01.925.935c.017.264.374 6.493-1.306 11.014zm-.66-9.985c-1.741-.012-5.55.133-9.24 1.512-1.658.619-2.979 1.572-4.278 3.088-1.1 1.284-2.346 3.928-3.348 5.926-.591 1.18-1.102 2.199-1.542 2.916a.998.998 0 01-.852.476H6.048l-2.247 2.375 4.581 1.048c.217.05.409.17.549.339.213.244 2.991 3.325 4.83 5.363.112.125.192.277.231.44l.898 3.8L17 27.002v-5.226c0-.301.135-.585.368-.775.404-.331 1.327-.834 2.868-1.695 2.065-1.154 5.454-2.735 6.694-3.837 1.677-1.491 2.235-2.484 2.851-4.142 1.178-3.17 1.247-7.445 1.215-9.289zm-7.998 11.973A4.016 4.016 0 0118.987 10c0-2.212 1.8-4.011 4.011-4.011A4.015 4.015 0 0127.009 10a4.015 4.015 0 01-4.011 4.011zm0-6.013A2.005 2.005 0 0020.996 10c0 1.104.899 2.002 2.002 2.002A2.005 2.005 0 0025.001 10a2.005 2.005 0 00-2.003-2.002zM4.138 23.832c.512-.255 1.041-.487 1.616-.928l1.218 1.554c-.728.56-1.401.895-1.941 1.165C3.743 26.264 3.1 26.626 3 30c3.497-.127 3.893-.998 4.522-2.304.245-.508.523-1.085.968-1.692l1.483 1.347c-.367.61-.488.915-.706 1.367-.993 2.063-1.984 3.26-7.284 3.26L1 32l-.017-1.022c0-5.023 1.01-6.076 3.155-7.146z"/></symbol><symbol id="twitter" viewBox="0 0 92 74.77"><path d="M92 8.85a37.59 37.59 0 01-10.84 3 18.89 18.89 0 008.3-10.44 37.75 37.75 0 01-12 4.58 18.88 18.88 0 00-32.65 12.92 18.47 18.47 0 00.49 4.3A53.6 53.6 0 016.39 3.49a18.91 18.91 0 005.84 25.2 18.91 18.91 0 01-8.55-2.36v.23a18.89 18.89 0 0015.14 18.51 18.9 18.9 0 01-8.52.32 18.89 18.89 0 0017.65 13.08 37.89 37.89 0 01-23.44 8.08 39.4 39.4 0 01-4.5-.26 53.45 53.45 0 0028.93 8.48c34.72 0 53.71-28.76 53.71-53.71 0-.81 0-1.63-.06-2.44A38.22 38.22 0 0092 8.85z"/></symbol><symbol id="twitter2"><path fill-rule="evenodd" opacity=".2" d="M17.631.601c2.035-.036 3.117.705 4.152 1.648.878-.075 2.018-.566 2.69-.907l.654-.357c-.384 1.037-.904 1.848-1.704 2.465-.178.137-.354.321-.577.408v.013c1.14-.011 2.08-.526 2.973-.805v.013c-.469.746-1.104 1.502-1.781 2.044l-.82.652c.015 1.206-.018 2.358-.244 3.372-1.311 5.895-4.787 9.897-10.288 11.612-1.976.616-5.168.868-7.432.306-1.122-.278-2.136-.593-3.088-1.009A12.354 12.354 0 01.68 19.29l-.461-.281c.51.015 1.107.156 1.678.064.517-.084 1.023-.062 1.499-.166 1.188-.261 2.243-.606 3.152-1.137.441-.258 1.109-.561 1.423-.933-.591.011-1.125-.126-1.564-.281-1.699-.6-2.688-1.702-3.331-3.359.515.056 1.998.19 2.345-.103-.648-.035-1.272-.411-1.717-.689-1.367-.856-2.481-2.29-2.473-4.497l.538.255c.343.145.692.223 1.102.307.173.036.519.138.717.064h-.025c-.265-.308-.695-.513-.961-.843-.877-1.09-1.699-2.767-1.179-4.765.132-.507.341-.954.564-1.367l.026.013c.101.214.329.37.474.549.447.555 1 1.054 1.563 1.495 1.918 1.5 3.645 2.421 6.419 3.104.704.173 1.517.305 2.358.306-.237-.687-.161-1.799.025-2.465.468-1.673 1.483-2.879 2.973-3.526a6.328 6.328 0 011.166-.357l.64-.077z"/></symbol></svg>