<svg 
 xmlns="http://www.w3.org/2000/svg"
 xmlns:xlink="http://www.w3.org/1999/xlink"
 width="26px" height="26px">
<path fill-rule="evenodd"  opacity="0.2" fill="rgb(0, 0, 0)"
 d="M25.559,10.423 C25.391,9.601 25.139,8.791 24.812,8.017 C24.492,7.257 24.094,6.526 23.632,5.842 C23.174,5.165 22.649,4.528 22.070,3.949 C21.491,3.369 20.854,2.843 20.176,2.386 C19.493,1.923 18.760,1.527 18.002,1.205 C17.229,0.879 16.419,0.626 15.596,0.460 C14.753,0.287 13.886,0.199 13.019,0.199 C12.151,0.199 11.284,0.287 10.441,0.460 C9.618,0.626 8.809,0.879 8.036,1.205 C7.277,1.527 6.545,1.923 5.861,2.386 C5.183,2.843 4.546,3.369 3.967,3.949 C3.388,4.528 2.863,5.165 2.405,5.842 C1.943,6.526 1.546,7.257 1.225,8.017 C0.898,8.791 0.647,9.601 0.478,10.423 C0.306,11.264 0.218,12.132 0.218,12.999 C0.218,13.868 0.306,14.735 0.478,15.578 C0.647,16.400 0.898,17.210 1.225,17.983 C1.546,18.741 1.943,19.475 2.405,20.158 C2.863,20.836 3.388,21.472 3.967,22.052 C4.546,22.630 5.183,23.155 5.861,23.613 C6.545,24.076 7.277,24.473 8.036,24.794 C8.809,25.121 9.618,25.371 10.441,25.540 C11.284,25.714 12.151,25.801 13.019,25.801 C13.886,25.801 14.753,25.714 15.596,25.540 C16.419,25.371 17.229,25.121 18.002,24.794 C18.760,24.473 19.493,24.076 20.176,23.613 C20.854,23.155 21.491,22.630 22.070,22.052 C22.649,21.472 23.174,20.836 23.632,20.158 C24.094,19.475 24.492,18.741 24.812,17.983 C25.139,17.210 25.391,16.400 25.559,15.578 C25.732,14.735 25.819,13.868 25.819,12.999 C25.819,12.132 25.732,11.264 25.559,10.423 ZM23.947,12.891 C23.789,12.856 20.089,12.060 16.333,12.533 C16.256,12.345 16.178,12.157 16.097,11.968 C15.870,11.433 15.625,10.903 15.371,10.383 C19.688,8.621 21.441,6.086 21.461,6.056 C22.995,7.918 23.922,10.296 23.947,12.891 ZM20.239,4.795 C20.212,4.838 18.655,7.208 14.529,8.754 C12.660,5.320 10.607,2.593 10.443,2.376 C11.269,2.176 12.131,2.068 13.019,2.068 C15.787,2.068 18.313,3.099 20.239,4.795 ZM10.401,2.385 C10.400,2.386 10.399,2.387 10.399,2.387 C10.399,2.387 10.386,2.390 10.366,2.394 C10.377,2.391 10.389,2.389 10.401,2.385 ZM8.355,3.113 C8.500,3.308 10.522,6.048 12.414,9.412 C7.165,10.806 2.610,10.751 2.321,10.746 C3.031,7.360 5.306,4.553 8.355,3.113 ZM2.087,12.999 C2.087,12.883 2.092,12.768 2.096,12.654 C2.289,12.658 7.691,12.780 13.319,11.096 C13.633,11.709 13.932,12.332 14.206,12.954 C14.061,12.995 13.918,13.038 13.775,13.085 C7.876,14.991 4.884,20.300 4.884,20.300 C4.884,20.300 4.887,20.303 4.888,20.305 C3.147,18.368 2.087,15.807 2.087,12.999 ZM13.019,23.932 C10.373,23.932 7.947,22.991 6.055,21.427 C6.199,21.543 6.300,21.618 6.300,21.618 C6.300,21.618 8.396,17.047 14.879,14.789 C14.903,14.780 14.927,14.773 14.951,14.766 C16.490,18.763 17.125,22.110 17.287,23.066 C15.975,23.623 14.533,23.932 13.019,23.932 ZM19.127,22.067 C19.016,21.406 18.434,18.198 16.999,14.258 C20.529,13.694 23.587,14.662 23.812,14.735 C23.326,17.782 21.582,20.409 19.127,22.067 Z"/>
</svg>