<svg id="All_glyphs" data-name="All glyphs" xmlns="http://www.w3.org/2000/svg" viewBox="0 0 92 92"><title>dribble</title><path d="M240.45,3625.33a239.05,239.05,0,0,0-14.59-22.63,39.3,39.3,0,0,0-21.68,27.43A145.44,145.44,0,0,0,240.45,3625.33Zm4.89,13.2,1.55-.47c-1-2.23-2.06-4.47-3.19-6.67a143.83,143.83,0,0,1-40.33,5.59c0,.42,0,.83,0,1.25a39.07,39.07,0,0,0,10.08,26.26.07.07,0,0,1,0,0S224.14,3645.38,245.34,3638.53Zm-26.86,30.67v0c-.29-.23-.6-.44-.89-.67Zm14.73-69.11-.1,0,.09,0Zm35.36,8.66a39.22,39.22,0,0,0-35.21-8.7A199.07,199.07,0,0,1,248.05,3623C262.86,3617.42,268.46,3608.91,268.57,3608.75Zm-25.95,75.48a46,46,0,1,1,46-46A46,46,0,0,1,242.62,3684.23Zm6.68-39.57c-23.05,8-30.66,24.19-30.82,24.52A39.23,39.23,0,0,0,258,3674.4a164.06,164.06,0,0,0-8.4-29.83Zm1.77-15.84c.92,1.88,1.8,3.78,2.61,5.7.29.68.58,1.36.85,2a91,91,0,0,1,27.36,1.28,39.1,39.1,0,0,0-8.93-24.56C272.88,3613.39,266.58,3622.49,251.07,3628.82Zm5.85,13.93a169.34,169.34,0,0,1,7.65,28.06,39.33,39.33,0,0,0,16.84-26.35A57.14,57.14,0,0,0,256.92,3642.75Z" transform="translate(-196.62 -3592.23)"/></svg>