<svg id="All_glyphs" data-name="All glyphs" xmlns="http://www.w3.org/2000/svg" viewBox="0 0 70 100"><title>feather</title><path d="M66.75,184.88c1.53-5,3.85-12.06,7-22.25,13.53-2.19,19.13,1.73,27.72-13.93-7,2.18-15.38-4-14.93-6.74s19.56,1.95,32.08-16.19c-15.78,3.55-20.82-4.26-18.79-5.44,4.7-2.73,18.64-1.13,26.07-8.52,3.82-3.79,5.62-13,4.06-16.34-1.87-4-13.28-9.92-19.57-9.36s-16.16,24.44-19.08,24.25-3.52-10.69,1.59-20.47c-5.39,2.43-15.25,10-18.35,16.46-5.76,12,.54,39.62-1.48,40.6s-8.83-12.66-10.86-18.84c-2.77,9.48-2.84,19,5.27,31.6a88.3,88.3,0,0,0-5,22.65C62.34,186.24,66.08,187.07,66.75,184.88Z" transform="translate(-60.48 -86.07)"/></svg>