<svg id="All_glyphs" data-name="All glyphs" xmlns="http://www.w3.org/2000/svg" viewBox="0 0 89.61 88"><title>google</title><path d="M89.24,3574.76c0,7.47,2.49,12.86,7.41,16a21.16,21.16,0,0,0,11.13,3c.59,0,1.06,0,1.39-.05a14.34,14.34,0,0,0,3,10H112c-6.44,0-27.46,1.35-27.46,18.63,0,17.59,19.3,18.48,23.18,18.48h1.27a35.75,35.75,0,0,0,14.88-3.21c7.74-3.76,11.67-10.29,11.67-19.42,0-8.83-6-14.08-10.35-17.92-2.67-2.34-5-4.36-5-6.32s1.68-3.51,3.81-5.41c3.44-3.08,6.69-7.47,6.69-15.76,0-7.28-.95-12.17-6.77-15.28a21,21,0,0,1,3.82-.68c3.15-.43,7.77-.92,7.77-3.5v-.5h-23C112.26,3552.82,89.24,3553.67,89.24,3574.76Zm37.12,45.06c.44,7-5.58,12.22-14.61,12.88s-16.73-3.46-17.17-10.48a11.63,11.63,0,0,1,4.18-9.32,19.07,19.07,0,0,1,11.39-4.64c.52,0,1-.05,1.55-.05C120.19,3608.21,125.94,3613.2,126.36,3619.82Zm-6-49.87c2.26,7.93-1.15,16.22-6.57,17.75a7,7,0,0,1-1.93.27c-5,0-9.9-5-11.72-12a17.3,17.3,0,0,1,.23-10.57c1.15-3.22,3.22-5.39,5.82-6.12a6.9,6.9,0,0,1,1.92-.27C114.1,3559.05,118,3561.54,120.35,3570Zm38.75,17.27v-15h-9.5v15h-15v9.5h15v15h9.5v-15h15v-9.5Z" transform="translate(-84.49 -3552.81)"/></svg>