<svg 
 xmlns="http://www.w3.org/2000/svg"
 xmlns:xlink="http://www.w3.org/1999/xlink"
 width="26px" height="23px">
<path fill-rule="evenodd"  opacity="0.2" fill="rgb(0, 0, 0)"
 d="M21.819,6.322 L21.819,10.227 L20.219,10.227 L20.219,6.322 L16.219,6.322 L16.219,4.726 L20.219,4.726 L20.219,0.822 L21.819,0.822 L21.819,4.726 L25.819,4.726 L25.819,6.322 L21.819,6.322 ZM10.755,2.369 C12.175,3.155 13.007,4.431 13.007,6.099 C13.007,7.501 12.141,8.605 11.025,9.462 C9.936,10.298 9.729,10.649 9.729,11.359 C9.729,11.965 10.896,12.998 11.506,13.422 C13.290,14.661 13.817,15.811 13.817,17.731 C13.817,20.126 11.506,22.802 7.232,22.802 C3.482,22.802 0.219,21.008 0.219,18.613 C0.219,16.181 3.205,13.834 6.954,13.834 C7.362,13.834 7.737,13.817 8.124,13.817 C7.611,13.327 7.205,12.717 7.205,11.976 C7.205,11.537 7.348,11.095 7.548,10.719 C7.344,10.734 7.136,10.701 6.922,10.701 C3.842,10.701 1.779,8.475 1.779,5.808 C1.779,3.199 4.628,0.798 7.655,0.798 C9.343,0.798 14.407,0.798 14.407,0.798 L12.896,2.369 L10.755,2.369 ZM7.668,14.454 C5.077,14.427 2.755,16.007 2.755,17.903 C2.755,19.838 4.627,21.253 7.218,21.253 C10.861,21.253 12.131,19.937 12.131,18.002 C12.131,17.769 12.101,17.540 12.048,17.318 C11.763,16.223 10.755,15.680 9.348,14.720 C8.836,14.557 8.273,14.461 7.668,14.454 ZM10.580,6.129 C10.279,3.886 8.551,2.085 6.811,2.035 C5.072,1.984 3.905,3.700 4.206,5.944 C4.506,8.188 6.159,10.048 7.899,10.099 C9.637,10.150 10.880,8.373 10.580,6.129 Z"/>
</svg>