<svg id="All_glyphs" data-name="All glyphs" xmlns="http://www.w3.org/2000/svg" viewBox="0 0 86 70"><title>heart</title><path d="M347.35,285.16a22.76,22.76,0,0,0-30.27,0l-5.67,5.2-5.68-5.2a22.76,22.76,0,0,0-30.27,0,20.84,20.84,0,0,0,0,31.25l36,33,35.94-33A20.83,20.83,0,0,0,347.35,285.16ZM342,311.28l-30.62,28.57-30.62-28.57a13.7,13.7,0,0,1-4.29-10.5c0-3.93.69-7.16,3.78-10a15.14,15.14,0,0,1,10.32-3.89c3.92,0,7.58,2.38,10.31,4.89l10.5,9.13,10.49-9.13c2.73-2.51,6.4-4.89,10.32-4.89a15.16,15.16,0,0,1,10.32,3.89c3.08,2.83,3.77,6.06,3.77,10A13.69,13.69,0,0,1,342,311.28Z" transform="translate(-268.41 -279.4)"/></svg>