<svg id="All_glyphs" data-name="All glyphs" xmlns="http://www.w3.org/2000/svg" viewBox="0 0 86 90"><title>megaphone</title><path d="M-2083.19,748.87c-7.92-18.42-20.66-32.45-27.11-29.83-10.95,4.45,6.52,25.82-47.23,47.67-4.65,1.88-5.82,9.44-3.88,13.95s8.29,9,12.94,7.13c.8-.33,3.75-1.28,3.75-1.28,3.32,4.45,6.79,1.81,8,4.64,1.48,3.4,4.69,10.79,5.79,13.3s3.57,4.84,5.37,4.15l10.25-3.9a3.38,3.38,0,0,0,2.18-4.62c-.77-1.77-3.93-2.29-4.83-4.36s-3.85-8.69-4.69-10.78c-1.16-2.84,1.29-5.15,4.85-5.53,24.46-2.55,29,12.57,37.37,9.18C-2074,786-2075.28,767.29-2083.19,748.87Zm-2.76,29.88c-1.43.59-11.06-7-17.21-21.33s-5.38-27.41-4-28,10.82,8.58,17,22.9S-2084.52,778.17-2085.95,778.75Z" transform="translate(2162.31 -718.72)"/></svg>