<svg 
 xmlns="http://www.w3.org/2000/svg"
 xmlns:xlink="http://www.w3.org/1999/xlink"
 width="26px" height="22px">
<path fill-rule="evenodd"  opacity="0.2" fill="rgb(0, 0, 0)"
 d="M17.631,0.601 C19.666,0.565 20.748,1.306 21.783,2.249 C22.661,2.174 23.801,1.683 24.473,1.342 C24.691,1.223 24.909,1.103 25.127,0.985 C24.743,2.022 24.223,2.833 23.423,3.450 C23.245,3.587 23.069,3.771 22.846,3.858 C22.846,3.863 22.846,3.867 22.846,3.871 C23.986,3.860 24.926,3.345 25.819,3.066 C25.819,3.071 25.819,3.075 25.819,3.079 C25.350,3.825 24.715,4.581 24.038,5.123 C23.764,5.340 23.491,5.557 23.218,5.775 C23.233,6.981 23.200,8.133 22.974,9.147 C21.663,15.042 18.187,19.044 12.686,20.759 C10.710,21.375 7.518,21.627 5.254,21.065 C4.132,20.787 3.118,20.472 2.166,20.056 C1.638,19.825 1.148,19.575 0.680,19.290 C0.526,19.196 0.373,19.103 0.219,19.009 C0.729,19.024 1.326,19.165 1.897,19.073 C2.414,18.989 2.920,19.011 3.396,18.907 C4.584,18.646 5.639,18.301 6.548,17.770 C6.989,17.512 7.657,17.209 7.971,16.837 C7.380,16.848 6.846,16.711 6.407,16.556 C4.708,15.956 3.719,14.854 3.076,13.197 C3.591,13.253 5.074,13.387 5.421,13.094 C4.773,13.059 4.149,12.683 3.704,12.405 C2.337,11.549 1.223,10.115 1.231,7.908 C1.410,7.993 1.590,8.078 1.769,8.163 C2.112,8.308 2.461,8.386 2.871,8.470 C3.044,8.506 3.390,8.608 3.588,8.534 C3.580,8.534 3.571,8.534 3.563,8.534 C3.298,8.226 2.868,8.021 2.602,7.691 C1.725,6.601 0.903,4.924 1.423,2.926 C1.555,2.419 1.764,1.972 1.987,1.559 C1.995,1.564 2.004,1.567 2.013,1.572 C2.114,1.786 2.342,1.942 2.487,2.121 C2.934,2.676 3.487,3.175 4.050,3.616 C5.968,5.116 7.695,6.037 10.469,6.720 C11.173,6.893 11.986,7.025 12.827,7.026 C12.590,6.339 12.666,5.227 12.852,4.561 C13.320,2.888 14.335,1.682 15.825,1.035 C16.181,0.881 16.576,0.768 16.991,0.678 C17.204,0.652 17.418,0.626 17.631,0.601 Z"/>
</svg>