<svg id="All_glyphs" data-name="All glyphs" xmlns="http://www.w3.org/2000/svg" viewBox="0 0 92 74.77"><title>twitter</title><path d="M254.05,3703.59a37.59,37.59,0,0,1-10.84,3,18.89,18.89,0,0,0,8.3-10.44,37.75,37.75,0,0,1-12,4.58,18.88,18.88,0,0,0-32.65,12.92,18.47,18.47,0,0,0,.49,4.3,53.6,53.6,0,0,1-38.91-19.72,18.91,18.91,0,0,0,5.84,25.2,18.91,18.91,0,0,1-8.55-2.36v.23a18.89,18.89,0,0,0,15.14,18.51,18.9,18.9,0,0,1-8.52.32A18.89,18.89,0,0,0,190,3753.21a37.89,37.89,0,0,1-23.44,8.08,39.4,39.4,0,0,1-4.5-.26,53.45,53.45,0,0,0,28.93,8.48c34.72,0,53.71-28.76,53.71-53.71,0-.81,0-1.63-.06-2.44A38.22,38.22,0,0,0,254.05,3703.59Z" transform="translate(-162.05 -3694.74)"/></svg>